<?xml version="1.0" encoding="UTF-8"?>
<!DOCTYPE svg PUBLIC "-//W3C//DTD SVG 1.1//EN" "http://www.w3.org/Graphics/SVG/1.1/DTD/svg11.dtd">
<!-- Creator: CorelDRAW X6 -->
<svg xmlns="http://www.w3.org/2000/svg" xml:space="preserve" width="28.7mm" height="28.7mm" version="1.1" style="shape-rendering:geometricPrecision; text-rendering:geometricPrecision; image-rendering:optimizeQuality; fill-rule:evenodd; clip-rule:evenodd"
viewBox="0 0 77 77"
 xmlns:xlink="http://www.w3.org/1999/xlink">
 <defs>
  <style type="text/css">
   <![CDATA[
    .fil26 {fill:#00ACAC}
    .fil27 {fill:#93E25E}
    .fil0 {fill:#E6E6E6}
    .fil1 {fill:#E7E7E7}
    .fil2 {fill:#E8E8E8}
    .fil3 {fill:#E9E9E9}
    .fil4 {fill:#EAEAEA}
    .fil5 {fill:#EBEBEB}
    .fil6 {fill:#ECECEC}
    .fil7 {fill:#EDEDED}
    .fil8 {fill:#EEEEEE}
    .fil9 {fill:#EFEFEF}
    .fil10 {fill:#F0F0F0}
    .fil11 {fill:#F1F1F1}
    .fil12 {fill:#F2F2F2}
    .fil13 {fill:#F3F3F3}
    .fil14 {fill:#F4F4F4}
    .fil15 {fill:whitesmoke}
    .fil16 {fill:#F6F6F6}
    .fil17 {fill:#F7F7F7}
    .fil18 {fill:#F8F8F8}
    .fil19 {fill:#F9F9F9}
    .fil20 {fill:#FAFAFA}
    .fil21 {fill:#FBFBFB}
    .fil22 {fill:#FCFCFC}
    .fil23 {fill:#FDFDFD}
    .fil24 {fill:#FEFEFE}
    .fil25 {fill:white}
   ]]>
  </style>
    <clipPath id="id0">
     <path d="M38 0c21,0 38,17 38,38 0,21 -17,38 -38,38 -21,0 -38,-17 -38,-38 0,-21 17,-38 38,-38z"/>
    </clipPath>
 </defs>
 <g id="Camada_x0020_1">
  <metadata id="CorelCorpID_0Corel-Layer"/>
  <g>
   <g style="clip-path:url(#id0)">
    <polygon class="fil0" points="0,0 77,0 77,77 0,77 0,0 2,2 75,2 75,75 2,75 2,2 "/>
    <polygon id="1" class="fil0" points="1,1 76,1 76,76 1,76 1,1 2,2 75,2 75,75 2,75 2,2 "/>
    <polygon id="2" class="fil1" points="2,2 75,2 75,75 2,75 2,2 3,3 74,3 74,74 3,74 3,3 "/>
    <polygon id="3" class="fil1" points="2,2 75,2 75,75 2,75 2,2 4,4 73,4 73,73 4,73 4,4 "/>
    <polygon id="4" class="fil2" points="3,3 74,3 74,74 3,74 3,3 5,5 72,5 72,72 5,72 5,5 "/>
    <polygon id="5" class="fil3" points="4,4 73,4 73,73 4,73 4,4 5,5 72,5 72,72 5,72 5,5 "/>
    <polygon id="6" class="fil3" points="5,5 72,5 72,72 5,72 5,5 6,6 71,6 71,71 6,71 6,6 "/>
    <polygon id="7" class="fil4" points="5,5 72,5 72,72 5,72 5,5 7,7 70,7 70,70 7,70 7,7 "/>
    <polygon id="8" class="fil5" points="6,6 71,6 71,71 6,71 6,6 8,8 69,8 69,69 8,69 8,8 "/>
    <polygon id="9" class="fil5" points="7,7 70,7 70,70 7,70 7,7 8,8 68,8 68,68 8,68 8,8 "/>
    <polygon id="10" class="fil6" points="8,8 69,8 69,69 8,69 8,8 9,9 68,9 68,68 9,68 9,9 "/>
    <polygon id="11" class="fil6" points="8,8 68,8 68,68 8,68 8,8 10,10 67,10 67,67 10,67 10,10 "/>
    <polygon id="12" class="fil7" points="9,9 68,9 68,68 9,68 9,9 11,11 66,11 66,66 11,66 11,11 "/>
    <polygon id="13" class="fil8" points="10,10 67,10 67,67 10,67 10,10 12,12 65,12 65,65 12,65 12,12 "/>
    <polygon id="14" class="fil8" points="11,11 66,11 66,66 11,66 11,11 12,12 65,12 65,65 12,65 12,12 "/>
    <polygon id="15" class="fil9" points="12,12 65,12 65,65 12,65 12,12 13,13 64,13 64,64 13,64 13,13 "/>
    <polygon id="16" class="fil10" points="12,12 65,12 65,65 12,65 12,12 14,14 63,14 63,63 14,63 14,14 "/>
    <polygon id="17" class="fil10" points="13,13 64,13 64,64 13,64 13,13 15,15 62,15 62,62 15,62 15,15 "/>
    <polygon id="18" class="fil11" points="14,14 63,14 63,63 14,63 14,14 15,15 62,15 62,62 15,62 15,15 "/>
    <polygon id="19" class="fil11" points="15,15 62,15 62,62 15,62 15,15 16,16 61,16 61,61 16,61 16,16 "/>
    <polygon id="20" class="fil12" points="15,15 62,15 62,62 15,62 15,15 17,17 60,17 60,60 17,60 17,17 "/>
    <polygon id="21" class="fil12" points="16,16 61,16 61,61 16,61 16,16 18,18 59,18 59,59 18,59 18,18 "/>
    <polygon id="22" class="fil13" points="17,17 60,17 60,60 17,60 17,17 18,18 58,18 58,58 18,58 18,18 "/>
    <polygon id="23" class="fil13" points="18,18 59,18 59,59 18,59 18,18 19,19 58,19 58,58 19,58 19,19 "/>
    <polygon id="24" class="fil14" points="18,18 58,18 58,58 18,58 18,18 20,20 57,20 57,57 20,57 20,20 "/>
    <polygon id="25" class="fil14" points="19,19 58,19 58,58 19,58 19,19 21,21 56,21 56,56 21,56 21,21 "/>
    <polygon id="26" class="fil15" points="20,20 57,20 57,57 20,57 20,20 22,22 55,22 55,55 22,55 22,22 "/>
    <polygon id="27" class="fil15" points="21,21 56,21 56,56 21,56 21,21 22,22 55,22 55,55 22,55 22,22 "/>
    <polygon id="28" class="fil15" points="22,22 55,22 55,55 22,55 22,22 23,23 54,23 54,54 23,54 23,23 "/>
    <polygon id="29" class="fil16" points="22,22 55,22 55,55 22,55 22,22 24,24 53,24 53,53 24,53 24,24 "/>
    <polygon id="30" class="fil16" points="23,23 54,23 54,54 23,54 23,23 25,25 52,25 52,52 25,52 25,25 "/>
    <polygon id="31" class="fil17" points="24,24 53,24 53,53 24,53 24,24 25,25 52,25 52,52 25,52 25,25 "/>
    <polygon id="32" class="fil17" points="25,25 52,25 52,52 25,52 25,25 26,26 51,26 51,51 26,51 26,26 "/>
    <polygon id="33" class="fil18" points="25,25 52,25 52,52 25,52 25,25 27,27 50,27 50,50 27,50 27,27 "/>
    <polygon id="34" class="fil18" points="26,26 51,26 51,51 26,51 26,26 28,28 49,28 49,49 28,49 28,28 "/>
    <polygon id="35" class="fil18" points="27,27 50,27 50,50 27,50 27,27 28,28 48,28 48,48 28,48 28,28 "/>
    <polygon id="36" class="fil19" points="28,28 49,28 49,49 28,49 28,28 29,29 48,29 48,48 29,48 29,29 "/>
    <polygon id="37" class="fil19" points="28,28 48,28 48,48 28,48 28,28 30,30 47,30 47,47 30,47 30,30 "/>
    <polygon id="38" class="fil20" points="29,29 48,29 48,48 29,48 29,29 31,31 46,31 46,46 31,46 31,31 "/>
    <polygon id="39" class="fil20" points="30,30 47,30 47,47 30,47 30,30 32,32 45,32 45,45 32,45 32,32 "/>
    <polygon id="40" class="fil21" points="31,31 46,31 46,46 31,46 31,31 32,32 45,32 45,45 32,45 32,32 "/>
    <polygon id="41" class="fil21" points="32,32 45,32 45,45 32,45 32,32 33,33 44,33 44,44 33,44 33,33 "/>
    <polygon id="42" class="fil21" points="32,32 45,32 45,45 32,45 32,32 34,34 43,34 43,43 34,43 34,34 "/>
    <polygon id="43" class="fil22" points="33,33 44,33 44,44 33,44 33,33 35,35 42,35 42,42 35,42 35,35 "/>
    <polygon id="44" class="fil22" points="34,34 43,34 43,43 34,43 34,34 35,35 42,35 42,42 35,42 35,35 "/>
    <polygon id="45" class="fil23" points="35,35 42,35 42,42 35,42 35,35 36,36 41,36 41,41 36,41 36,36 "/>
    <polygon id="46" class="fil23" points="35,35 42,35 42,42 35,42 35,35 37,37 40,37 40,40 37,40 37,37 "/>
    <polygon id="47" class="fil24" points="36,36 41,36 41,41 36,41 36,36 38,38 39,38 39,39 38,39 38,38 "/>
    <polygon id="48" class="fil24" points="37,37 40,37 40,40 37,40 37,37 38,38 38,38 38,38 38,38 38,38 "/>
    <polygon id="49" class="fil25" points="38,38 39,38 39,39 38,39 38,38 "/>
   </g>
  </g>
  <g>
   <g id="_712651296">
    <path class="fil26" d="M37 58c0,0 0,0 -1,-1 0,-1 -1,-2 -1,-2 -2,-4 -2,-8 -2,-13 1,-5 2,-8 5,-12 0,0 1,-1 1,-1l0 -13 -17 0c-1,0 -2,0 -3,0 -2,0 -4,1 -6,2 -1,1 -2,2 -3,3 0,0 0,1 -1,1 0,0 0,0 0,1 -1,3 -2,6 -1,9 0,1 1,1 1,2 0,0 0,1 1,1 -1,1 -3,2 -3,3 -3,5 -3,12 1,15 0,0 0,0 0,0 0,0 1,1 1,1 1,1 2,1 3,2 2,1 4,1 6,1l10 0 -3 -7c-2,0 -9,0 -10,0 -4,-1 -5,-7 -2,-9 1,-1 2,-1 4,-1 3,0 7,0 10,0 0,0 0,-1 0,-1l-3 -6c-2,0 -3,0 -5,0 -2,0 -3,0 -4,-1 -1,-1 -2,-2 -2,-3 0,-1 0,-3 0,-4 0,-1 1,-2 2,-2 1,-1 3,0 4,0 3,0 6,0 9,0l0 35 5 0c0,0 0,0 0,0z"/>
    <path class="fil26" d="M50 34l5 10 -10 0c-1,1 -4,6 -5,7l18 0c0,0 1,2 1,3l2 5 7 0c1,0 0,0 0,0l-1 -3c0,-1 0,-1 -1,-1 0,0 0,-1 -1,-2l-2 -5c0,0 0,-1 0,-1 -1,-2 -2,-5 -3,-7 0,-1 0,-1 -1,-2l-5 -10c-1,-2 -2,-4 -3,-6l-2 -5 -3 0 1 2c1,2 1,4 2,6 0,1 1,3 1,5 0,2 0,3 0,5z"/>
   </g>
   <path class="fil27" d="M44 30l0 0 0 0zm0 0l0 0 0 0zm0 0l0 0zm-5 -1c0,0 -1,1 -1,1 -3,4 -5,6 -5,12 0,4 0,9 2,13 0,1 1,2 1,2 0,0 0,1 1,1 0,-1 -1,-5 -1,-6 0,0 0,-1 0,-1 0,-1 0,-4 1,-5 0,-1 1,-3 1,-4 1,-3 3,-6 5,-9 0,0 2,-2 2,-2 -1,1 -1,2 -2,3 0,0 -1,1 -1,1 -1,1 -2,3 -2,5 0,1 0,1 -1,2 0,1 -1,2 -1,3 -1,4 -1,6 -1,10 0,1 0,3 0,4 1,0 0,0 1,-2 0,-2 1,-3 2,-5 1,-1 4,-6 5,-7l1 -1c1,-2 2,-3 4,-6 0,-1 1,-2 1,-3 0,-2 1,-3 0,-5 0,-2 0,-3 -1,-5 0,-2 -1,-4 -2,-6l-1 -2 0 0c0,0 0,0 0,1 0,0 0,1 0,1 0,2 -2,4 -2,5 -1,2 -2,3 -3,5 0,0 -1,1 -1,1z"/>
  </g>
 </g>
</svg>
