<?xml version="1.0" encoding="UTF-8"?>
<svg width="137.75mm" height="137.75mm" clip-rule="evenodd" fill-rule="evenodd" image-rendering="optimizeQuality"
    shape-rendering="geometricPrecision" text-rendering="geometricPrecision" version="1.1" viewBox="0 0 4217.5 4217.5"
    xml:space="preserve" xmlns="http://www.w3.org/2000/svg">

    <polygon fill="#038C7F"
        points="1112.2 1369.6 1380.9 504 1946 504 1946 1962.3 1565.8 1962.3 1564.9 1070.2 1297.8 1962.3 922.99 1962.3 657.48 1071.3 656.54 1962.3 276.43 1962.3 276.43 504 840.21 504" />
    <polygon fill="#038C7F" fill-rule="nonzero"
        points="311.13 1927.6 311.13 538.7 814.74 538.7 1112.4 1486 1406.5 538.7 1911.2 538.7 1911.2 1927.6 1600.5 1927.6 1599.3 834.19 1272 1927.6 948.86 1927.6 623.03 834.19 621.87 1927.6" />
    <polygon fill="#038C7F"
        points="3115.8 1369.6 3384.6 504 3949.6 504 3949.6 1962.3 3569.5 1962.3 3568.5 1070.2 3301.4 1962.3 2926.6 1962.3 2661.1 1071.3 2660.2 1962.3 2280.1 1962.3 2280.1 504 2843.8 504" />
    <polygon fill="#038C7F" fill-rule="nonzero"
        points="2314.8 1927.6 2314.8 538.7 2818.4 538.7 3116 1486 3410.1 538.7 3914.9 538.7 3914.9 1927.6 3604.1 1927.6 3603 834.19 3275.6 1927.6 2952.5 1927.6 2626.7 834.19 2625.5 1927.6" />
    <rect fill="#038C7F" x="2494.7" y="2223.2" width="108.31" height="831.12" />
    <rect fill="#038C7F" x="2191.6" y="2102.4" width="108.31" height="1072.9" />
    <rect fill="#038C7F" x="1888.5" y="2102.4" width="108.31" height="1072.9" />
    <rect fill="#038C7F" x="1583.9" y="2187.4" width="108.31" height="902.73" />
    <rect fill="#038C7F" x="645.47" y="2187.4" width="108.31" height="902.73" />
    <rect fill="#038C7F" x="360.73" y="2109.4" width="108.31" height="1058.8" />
    <rect fill="#038C7F" x="3477.5" y="2182.7" width="108.31" height="912.16" />
    <rect fill="#038C7F" x="3760.8" y="2112.5" width="108.31" height="1052.7" />

    <path fill="#05F2DB" fill-rule="nonzero"
        d="m267.89 3127.9c78.08 0.45 376.62-11.95 583.99-216.99 58.51-57.85 122.24-137.02 191.38-222.93 247.16-307.06 558.41-693.74 1068.6-694.18 510.26 0.45 821.54 387.01 1068.7 693.97 69.09 85.8 132.78 164.89 191.26 222.71 195.96 193.75 478.97 218.46 577.75 220.94v192.13c-119.67-3.02-467.43-33.52-712.62-275.94-66.92-66.17-133.79-149.2-206.32-239.28-221.7-275.32-500.9-622.03-918.79-622.4-417.79 0.36-696.97 347.19-918.66 622.61-72.58 90.18-139.48 173.29-206.45 239.5-255.69 252.81-616.15 272.02-718.86 272.09v-192.24z" />
    <path fill="#038C7F" fill-rule="nonzero"
        d="m267.89 2189.5c78.08-0.45 376.62 11.95 583.99 216.99 58.51 57.85 122.24 137.02 191.38 222.93 247.16 307.06 558.41 693.74 1068.6 694.18 510.26-0.45 821.54-387.01 1068.7-693.97 69.09-85.8 132.78-164.89 191.26-222.71 195.96-193.75 478.97-218.46 577.75-220.94v-192.13c-119.67 3.02-467.43 33.52-712.62 275.94-66.92 66.17-133.79 149.2-206.32 239.28-221.7 275.32-500.9 622.03-918.79 622.4-417.79-0.36-696.97-347.19-918.66-622.61-72.58-90.18-139.48-173.29-206.45-239.5-255.69-252.81-616.15-272.02-718.86-272.09v192.24z" />

    <path fill="#038C7F" fill-rule="nonzero"
        d="m980.38 3708.4v-197.73c0-10.09 0.82-26.39 2.39-48.89h-0.82c-1.84 6-3.55 11.18-5.05 15.54-1.57 4.43-3.01 7.98-4.3 10.77l-100.09 220.3h-11.41l-100.23-218.87c-2.94-6.68-5.94-16.02-9.02-28.16h-0.82c0.55 6.14 0.96 13.09 1.16 21 0.21 7.84 0.27 16.57 0.27 26.11v199.91h-25.83v-286.37h31.43l97.36 215.26c1.98 4.57 3.96 9.2 5.88 13.91 1.98 4.7 3.76 9.75 5.33 15.07h1.23c1.84-5.32 3.55-10.16 5.05-14.59 1.57-4.37 3.42-9.14 5.74-14.18l98.18-215.46h29.79v286.37h-26.23zm180.23 4.91c-15.17 0-28.83-2.52-40.86-7.57-12.09-5.11-22.41-12.27-30.95-21.55-8.54-9.27-15.03-20.32-19.54-33.27-4.58-12.96-6.83-27.27-6.83-43.02 0-17.05 2.39-32.32 7.17-45.75 4.85-13.5 11.68-24.89 20.5-34.3 8.88-9.41 19.61-16.57 32.11-21.48 12.57-4.98 26.58-7.43 42.02-7.43 14.82 0 28.15 2.45 39.97 7.29 11.89 4.84 21.93 11.93 30.2 21.07 8.27 9.2 14.62 20.46 18.99 33.61 4.44 13.23 6.63 28.23 6.63 45 0 16.02-2.32 30.55-6.9 43.71s-11.14 24.41-19.67 33.89c-8.54 9.48-18.93 16.77-31.22 22.02-12.23 5.18-26.1 7.77-41.61 7.77zm2.05-192.27c-11.27 0-21.38 1.91-30.47 5.8s-16.87 9.48-23.36 16.91c-6.49 7.36-11.48 16.43-14.96 27.2-3.48 10.71-5.19 22.91-5.19 36.48 0 12.82 1.71 24.34 5.19 34.57 3.49 10.3 8.4 19.09 14.76 26.46 6.35 7.3 14.07 12.95 23.16 16.84 9.08 3.95 19.2 5.93 30.47 5.93 11.48 0 21.66-1.91 30.47-5.73 8.81-3.75 16.26-9.27 22.41-16.57s10.79-16.16 13.94-26.73c3.14-10.5 4.71-22.5 4.71-36 0-27.55-6.15-48.68-18.45-63.27s-29.86-21.89-52.68-21.89zm287.63 187.37v-117.96c0-46.3-16.74-69.41-50.28-69.41-8.88 0-17.15 1.77-24.73 5.32s-14.14 8.39-19.67 14.66c-5.47 6.27-9.84 13.7-12.91 22.3-3.15 8.59-4.72 17.93-4.72 27.89v117.21h-25.83v-204.55h25.83v35.45h0.82c15.17-26.93 38.05-40.36 68.53-40.36 22.41 0 39.49 7.23 51.24 21.75 11.68 14.52 17.56 35.52 17.56 63v124.71h-25.83zm100.16-256.1c-4.98 0-9.22-1.71-12.84-5.18-3.69-3.48-5.47-7.91-5.47-13.23 0-5.18 1.78-9.48 5.47-12.89 3.62-3.41 7.86-5.11 12.84-5.11 2.53 0 4.99 0.41 7.24 1.3 2.32 0.89 4.23 2.12 5.94 3.68 1.71 1.63 3.01 3.55 4.03 5.73 1.03 2.18 1.5 4.64 1.5 7.3 0 2.52-0.48 4.91-1.44 7.23-0.88 2.25-2.25 4.23-4.03 5.86-1.71 1.71-3.69 3-5.88 3.89-2.26 0.96-4.71 1.43-7.38 1.43zm-12.71 256.1v-204.55h25.83v204.55h-25.83zm179.41-2.52c-8.81 4.43-18.38 6.61-28.76 6.61-33 0-49.53-19.02-49.53-57.07v-129.07h-36.07v-22.5h36.07v-51.34l25.83-8.39v59.73h52.47v22.5h-52.47v124.98c0 13.84 2.25 23.8 6.76 29.93 4.51 6.07 12.09 9.14 22.89 9.14 7.93 0 15.51-2.39 22.82-7.16v22.64zm122.77 7.43c-15.17 0-28.83-2.52-40.86-7.57-12.09-5.11-22.41-12.27-30.95-21.55-8.54-9.27-15.03-20.32-19.54-33.27-4.58-12.96-6.83-27.27-6.83-43.02 0-17.05 2.39-32.32 7.17-45.75 4.85-13.5 11.68-24.89 20.5-34.3 8.88-9.41 19.61-16.57 32.11-21.48 12.57-4.98 26.58-7.43 42.02-7.43 14.82 0 28.15 2.45 39.96 7.29 11.89 4.84 21.93 11.93 30.2 21.07 8.27 9.2 14.62 20.46 18.99 33.61 4.44 13.23 6.63 28.23 6.63 45 0 16.02-2.32 30.55-6.9 43.71s-11.14 24.41-19.67 33.89c-8.54 9.48-18.93 16.77-31.22 22.02-12.23 5.18-26.1 7.77-41.61 7.77zm2.05-192.27c-11.27 0-21.38 1.91-30.47 5.8s-16.87 9.48-23.36 16.91c-6.49 7.36-11.48 16.43-14.96 27.2-3.48 10.71-5.19 22.91-5.19 36.48 0 12.82 1.71 24.34 5.19 34.57 3.48 10.3 8.4 19.09 14.76 26.46 6.35 7.3 14.07 12.95 23.16 16.84 9.08 3.95 19.19 5.93 30.47 5.93 11.48 0 21.66-1.91 30.47-5.73 8.81-3.75 16.26-9.27 22.41-16.57s10.79-16.16 13.94-26.73c3.14-10.5 4.71-22.5 4.71-36 0-27.55-6.15-48.68-18.45-63.27s-29.86-21.89-52.68-21.89zm251.14 9.07c-6.01-4.43-13.73-6.61-23.23-6.61-6.77 0-12.78 1.3-17.97 3.89-5.26 2.59-9.77 6.07-13.73 10.5-3.96 4.36-7.24 9.48-9.98 15.27-2.8 5.8-4.99 11.8-6.63 18.07-1.71 6.27-2.87 12.61-3.62 18.95-0.75 6.41-1.1 12.48-1.1 18.2v100.03h-25.42v-204.55h25.42v43.84h0.82c2.39-7.43 5.4-14.18 9.08-20.04 3.69-5.93 7.93-10.98 12.71-15 4.78-4.09 10.04-7.16 15.71-9.27s11.61-3.21 17.9-3.21c4.17 0 7.86 0.28 11.14 0.82 3.21 0.48 6.22 1.3 8.88 2.39v26.73zm407.39 178.3v-197.73c0-10.09 0.82-26.39 2.39-48.89h-0.82c-1.84 6-3.55 11.18-5.05 15.54-1.57 4.43-3.01 7.98-4.3 10.77l-100.09 220.3h-11.41l-100.23-218.87c-2.94-6.68-5.94-16.02-9.02-28.16h-0.82c0.54 6.14 0.95 13.09 1.16 21 0.21 7.84 0.28 16.57 0.28 26.11v199.91h-25.83v-286.37h31.43l97.36 215.26c1.98 4.57 3.96 9.2 5.88 13.91 1.98 4.7 3.76 9.75 5.33 15.07h1.23c1.85-5.32 3.55-10.16 5.06-14.59 1.57-4.37 3.41-9.14 5.73-14.18l98.18-215.46h29.78v286.37h-26.23zm108.7-97.78c0.14 12.55 1.78 23.8 4.99 33.82 3.21 9.95 7.79 18.48 13.8 25.36 6.01 6.96 13.32 12.27 21.93 15.89 8.61 3.68 18.31 5.52 29.1 5.52 23.09 0 44.89-8.05 65.45-24.21v25.3c-19.61 13.98-43.38 21-71.26 21-13.73 0-26.24-2.39-37.44-7.23-11.2-4.77-20.7-11.73-28.63-20.87-7.86-9.14-13.94-20.38-18.17-33.68-4.3-13.36-6.42-28.57-6.42-45.61 0-15.34 2.32-29.52 6.97-42.62 4.72-13.02 11.14-24.34 19.4-33.89 8.34-9.55 18.1-16.98 29.45-22.36 11.34-5.39 23.71-8.11 37.17-8.11 13.25 0 24.87 2.32 35.05 6.89 10.11 4.64 18.65 11.18 25.49 19.71 6.9 8.52 12.09 18.88 15.71 31.16 3.62 12.27 5.4 25.98 5.4 41.12v12.82h-147.98zm121.75-22.5c-0.41-21.27-5.47-37.77-15.24-49.5s-23.36-17.59-40.71-17.59c-8.68 0-16.74 1.5-24.19 4.57-7.38 3.07-13.94 7.5-19.54 13.3s-10.25 12.89-13.94 21.2c-3.69 8.32-6.22 17.66-7.72 28.02h121.34zm-64.9-119.87h-21.59l45.57-65.46h26.99l-50.97 65.46zm285.3 240.14v-35.86h-0.82c-6.76 12.89-16.53 22.98-29.1 30.07-12.64 7.16-26.98 10.7-42.97 10.7-12.84 0-24.46-2.39-34.98-7.09-10.46-4.77-19.47-11.59-26.92-20.52-7.44-8.93-13.25-19.71-17.35-32.39-4.03-12.68-6.08-27-6.08-42.96 0-16.57 2.26-31.64 6.7-45.34 4.51-13.64 10.86-25.36 19.06-35.18s18.11-17.39 29.65-22.77c11.55-5.39 24.39-8.11 38.53-8.11 29.51 0 50.69 11.79 63.47 35.39h0.82v-128.66h25.83v302.73h-25.83zm0-123.55c0-8.93-1.57-17.32-4.64-25.02s-7.31-14.45-12.78-20.18c-5.53-5.73-12.09-10.3-19.82-13.64-7.65-3.34-16.12-4.98-25.34-4.98-10.18 0-19.54 1.98-28.08 6s-15.92 9.75-22 17.32c-6.08 7.5-10.8 16.7-14.21 27.48-3.42 10.77-5.13 23.05-5.13 36.82 0 12.89 1.57 24.48 4.65 34.77 3.07 10.3 7.45 18.95 13.12 25.98 5.67 7.09 12.44 12.48 20.36 16.23 7.86 3.75 16.67 5.59 26.24 5.59 10.45 0 19.88-1.84 28.22-5.59s15.44-8.86 21.25-15.41 10.31-14.18 13.46-22.98c3.14-8.8 4.71-18.2 4.71-28.23v-34.16zm104.6-132.55c-4.99 0-9.22-1.71-12.84-5.18-3.69-3.48-5.47-7.91-5.47-13.23 0-5.18 1.78-9.48 5.47-12.89 3.62-3.41 7.86-5.11 12.84-5.11 2.53 0 4.99 0.41 7.24 1.3 2.32 0.89 4.24 2.12 5.94 3.68 1.71 1.63 3.01 3.55 4.03 5.73 1.03 2.18 1.5 4.64 1.5 7.3 0 2.52-0.48 4.91-1.44 7.23-0.89 2.25-2.25 4.23-4.03 5.86-1.71 1.71-3.69 3-5.88 3.89-2.25 0.96-4.71 1.43-7.38 1.43zm-12.71 256.1v-204.55h25.83v204.55h-25.83zm227.99-9.27c-15.24 9.21-33.61 13.91-55.27 14.18-14.69 0.14-27.94-2.39-39.7-7.57-11.75-5.25-21.73-12.48-30.06-21.68-8.27-9.27-14.62-20.18-18.99-32.8-4.44-12.55-6.63-26.25-6.63-41.05 0-15.34 2.32-29.73 7.04-43.23 4.65-13.57 11.48-25.3 20.43-35.39 8.95-10.02 19.88-18 32.86-23.87 12.91-5.86 27.74-8.79 44.47-8.79 16.94 0 32.45 3.27 46.46 9.82v27.14c-14.96-9.89-31.15-14.86-48.57-14.86-12.16 0-23.02 2.32-32.52 6.89-9.49 4.64-17.49 10.91-23.98 18.82s-11.41 17.18-14.82 27.82c-3.42 10.57-5.13 21.82-5.13 33.68 0 10.91 1.44 21.41 4.3 31.36 2.87 10.02 7.31 18.82 13.25 26.52 5.95 7.64 13.46 13.77 22.54 18.27 9.15 4.57 19.81 6.82 32.18 6.82 19.26 0 36.62-5.73 52.13-17.25v25.16zm132.68 14.18c-15.17 0-28.83-2.52-40.86-7.57-12.09-5.11-22.41-12.27-30.95-21.55-8.54-9.27-15.03-20.32-19.54-33.27-4.58-12.96-6.83-27.27-6.83-43.02 0-17.05 2.39-32.32 7.17-45.75 4.85-13.5 11.68-24.89 20.5-34.3 8.88-9.41 19.6-16.57 32.11-21.48 12.57-4.98 26.58-7.43 42.02-7.43 14.82 0 28.15 2.45 39.96 7.29 11.89 4.84 21.93 11.93 30.2 21.07 8.27 9.2 14.62 20.46 18.99 33.61 4.44 13.23 6.63 28.23 6.63 45 0 16.02-2.32 30.55-6.9 43.71s-11.14 24.41-19.67 33.89c-8.54 9.48-18.93 16.77-31.22 22.02-12.23 5.18-26.1 7.77-41.61 7.77zm2.05-192.27c-11.27 0-21.38 1.91-30.47 5.8s-16.87 9.48-23.36 16.91c-6.49 7.36-11.48 16.43-14.96 27.2-3.48 10.71-5.19 22.91-5.19 36.48 0 12.82 1.71 24.34 5.19 34.57 3.48 10.3 8.4 19.09 14.76 26.46 6.35 7.3 14.07 12.95 23.16 16.84 9.08 3.95 19.2 5.93 30.47 5.93 11.48 0 21.66-1.91 30.47-5.73 8.81-3.75 16.26-9.27 22.41-16.57s10.79-16.16 13.94-26.73c3.14-10.5 4.71-22.5 4.71-36 0-27.55-6.15-48.68-18.45-63.27s-29.86-21.89-52.68-21.89z" />
    <rect fill="none" width="4217.5" height="4217.5" />

</svg>