<?xml version="1.0" encoding="UTF-8"?>
<!DOCTYPE svg PUBLIC "-//W3C//DTD SVG 1.1//EN" "http://www.w3.org/Graphics/SVG/1.1/DTD/svg11.dtd">
<!-- Creator: CorelDRAW X6 -->
<svg xmlns="http://www.w3.org/2000/svg" xml:space="preserve" width="94.8246mm" height="62.7138mm" version="1.1" style="shape-rendering:geometricPrecision; text-rendering:geometricPrecision; image-rendering:optimizeQuality; fill-rule:evenodd; clip-rule:evenodd"
viewBox="0 0 616 407"
 xmlns:xlink="http://www.w3.org/1999/xlink">
 <defs>
  <style type="text/css">
   <![CDATA[
    .fil0 {fill:#00ACAC}
    .fil1 {fill:#93E25E}
   ]]>
  </style>
 </defs>
 <g id="Camada_x0020_1">
  <metadata id="CorelCorpID_0Corel-Layer"/>
  <g id="_905449952">
   <g>
    <path class="fil0" d="M304 405c-4,0 -5,-2 -6,-6 -4,-8 -8,-15 -12,-24 -16,-38 -24,-79 -19,-121 5,-53 23,-77 52,-114 2,-3 9,-10 10,-13l0 -123 -159 0c-10,0 -22,-1 -32,0 -22,2 -43,10 -59,21 -13,9 -23,19 -31,32 -2,3 -4,7 -6,10 -1,2 -1,3 -2,5 -12,28 -15,58 -5,88 3,8 6,14 10,22 2,4 4,7 6,10 -10,5 -24,21 -31,32 -32,47 -24,111 13,149 2,2 2,2 4,4 4,3 6,5 13,10 9,6 21,12 31,16 21,7 34,6 57,6l94 0 -27 -69c-17,0 -86,1 -97,-1 -42,-8 -53,-64 -17,-88 12,-8 22,-8 41,-8 33,0 66,0 99,0 -1,-3 -2,-6 -3,-9l-25 -61c-15,0 -30,0 -45,0 -18,0 -27,0 -38,-8 -8,-6 -16,-15 -20,-26 -4,-14 -3,-27 3,-38 5,-9 13,-18 23,-22 12,-5 25,-4 42,-4 30,0 61,0 91,0l0 335 46 0c-1,-1 0,-1 -1,-3z"/>
    <path class="fil0" d="M433 172l43 95 -96 0c-10,13 -40,56 -45,70l172 0c2,2 11,23 12,26l20 44 72 0c6,0 4,-1 2,-4l-13 -28c-2,-5 -4,-9 -6,-14 -2,-5 -4,-9 -7,-14l-22 -49c-1,-3 -2,-5 -3,-8 -9,-22 -23,-49 -32,-71 -2,-5 -4,-9 -6,-15l-45 -100c-8,-18 -18,-39 -26,-57l-20 -43 -30 0 8 18c7,18 14,41 18,60 3,14 6,29 8,44 2,21 -1,29 -4,48z"/>
   </g>
   <path class="fil1" d="M378 134l-1 1 1 -1zm1 -1l-1 1 1 -1zm0 0l0 0zm-50 -7c-1,3 -8,10 -10,13 -29,37 -47,61 -52,114 -4,42 3,83 19,121 4,8 7,16 12,24 2,3 2,6 6,6 -4,-8 -8,-47 -8,-58 0,-4 0,-8 0,-11 0,-14 3,-40 5,-52 2,-13 5,-24 9,-36 9,-33 25,-62 46,-89 3,-4 19,-22 22,-23 -5,8 -11,15 -17,25 -3,5 -5,9 -8,13 -7,12 -15,30 -21,43 -2,5 -4,10 -6,15 -3,10 -7,23 -9,33 -7,36 -10,61 -8,97 1,14 1,27 4,39 5,0 3,-4 6,-16 5,-19 9,-30 18,-47 5,-14 35,-57 45,-70l8 -11c14,-21 23,-32 35,-58 3,-6 9,-21 10,-27 3,-19 6,-27 4,-48 -1,-15 -4,-30 -8,-44 -4,-19 -11,-43 -18,-60l-8 -18 -3 -3c-5,1 -4,4 -4,8 -1,3 -2,7 -3,10 -4,17 -15,37 -23,51 -9,15 -20,30 -31,44 -2,3 -9,13 -11,14z"/>
  </g>
 </g>
</svg>
