<?xml version="1.0" encoding="UTF-8"?>
<svg width="1000" height="1000" version="1.0" viewBox="20 20 335 335" xmlns="http://www.w3.org/2000/svg">
<defs>
<clipPath id="az">
<path d="m18.34 16.9h338.25v341.24h-338.25z"/>
</clipPath>
<clipPath id="ay">
<path d="M23.3 183.63c.06-33.13 9.55-66.57 29.67-93.16a165.56 165.56 0 0 1 79.71-57.02 167.65 167.65 0 0 1 101.4-1.13 167.24 167.24 0 0 1 80.46 54.31 166.48 166.48 0 0 1 36.72 92.04c2.51 33.06-4.6 68.14-22.51 96.37-17.66 27.78-44.63 49.72-75 62.35a167.57 167.57 0 0 1-100.9 8.56 166.5 166.5 0 0 1-84.48-48.54 167.05 167.05 0 0 1-43.06-87.88 170.5 170.5 0 0 1-2.01-25.9c0-.63-2.01 2.33-2.14 2.58-.82 1.26-2.64 3.58-2.64 5.22.06 34.95 11 69.27 31.5 97.69a167.97 167.97 0 0 0 80.65 60.03 167.93 167.93 0 0 0 104.98 1.32 168.73 168.73 0 0 0 81.72-57.14c21.5-27.85 35.83-61.42 38.6-96.56A167.42 167.42 0 0 0 331.9 96.25a167.95 167.95 0 0 0-75.8-65.75 168.34 168.34 0 0 0-104.05-9.37C118.8 28.86 88.5 46.97 65.61 72.3c-23.2 25.71-39.67 58.72-45.02 92.98a164.58 164.58 0 0 0-2 26.08c0 .63 2-2.32 2.13-2.57.76-1.26 2.58-3.59 2.58-5.16Zm0 0"/>
</clipPath>
<clipPath id="aw">
<path d="m170 123h34v5.74h-34z"/>
</clipPath>
<clipPath id="av">
<path d="m163.63 103.24h48v22.76h-48z"/>
</clipPath>
<clipPath id="au">
<path d="m166.6 135.57h41.8v111.48h-41.8z"/>
</clipPath>
<clipPath id="at">
<path d="m173 240h7v4h-7z"/>
</clipPath>
<clipPath id="as">
<path d="m112.06 191.31 75.3-75.3 75.31 75.3-75.3 75.3z"/>
</clipPath>
<clipPath id="ar">
<path d="m112.06 191.31 75.3-75.3 75.31 75.3-75.3 75.3z"/>
</clipPath>
<clipPath id="aq">
<path d="m173 139h6v3h-6z"/>
</clipPath>
<clipPath id="ap">
<path d="m112.06 191.31 75.3-75.3 75.31 75.3-75.3 75.3z"/>
</clipPath>
<clipPath id="ao">
<path d="m112.06 191.31 75.3-75.3 75.31 75.3-75.3 75.3z"/>
</clipPath>
<clipPath id="an">
<path d="m179 150h17v3h-17z"/>
</clipPath>
<clipPath id="am">
<path d="m112.06 191.31 75.3-75.3 75.31 75.3-75.3 75.3z"/>
</clipPath>
<clipPath id="al">
<path d="m112.06 191.31 75.3-75.3 75.31 75.3-75.3 75.3z"/>
</clipPath>
<clipPath id="ak">
<path d="m165 136h45v110h-45z"/>
</clipPath>
<clipPath id="aj">
<path d="m112.06 191.31 75.3-75.3 75.31 75.3-75.3 75.3z"/>
</clipPath>
<clipPath id="ai">
<path d="m112.06 191.31 75.3-75.3 75.31 75.3-75.3 75.3z"/>
</clipPath>
<clipPath id="ah">
<path d="m180 176h15v4h-15z"/>
</clipPath>
<clipPath id="ag">
<path d="m112.06 191.31 75.3-75.3 75.31 75.3-75.3 75.3z"/>
</clipPath>
<clipPath id="af">
<path d="m112.06 191.31 75.3-75.3 75.31 75.3-75.3 75.3z"/>
</clipPath>
<clipPath id="ae">
<path d="m195 189h7v4h-7z"/>
</clipPath>
<clipPath id="ad">
<path d="m112.06 191.31 75.3-75.3 75.31 75.3-75.3 75.3z"/>
</clipPath>
<clipPath id="ac">
<path d="m112.06 191.31 75.3-75.3 75.31 75.3-75.3 75.3z"/>
</clipPath>
<clipPath id="ab">
<path d="m173 189h20v4h-20z"/>
</clipPath>
<clipPath id="aa">
<path d="m112.06 191.31 75.3-75.3 75.31 75.3-75.3 75.3z"/>
</clipPath>
<clipPath id="bm">
<path d="m112.06 191.31 75.3-75.3 75.31 75.3-75.3 75.3z"/>
</clipPath>
<clipPath id="bl">
<path d="m179 202h17v4h-17z"/>
</clipPath>
<clipPath id="bk">
<path d="m112.06 191.31 75.3-75.3 75.31 75.3-75.3 75.3z"/>
</clipPath>
<clipPath id="bj">
<path d="m112.06 191.31 75.3-75.3 75.31 75.3-75.3 75.3z"/>
</clipPath>
<clipPath id="bi">
<path d="m179 228h17v4h-17z"/>
</clipPath>
<clipPath id="bh">
<path d="m112.06 191.31 75.3-75.3 75.31 75.3-75.3 75.3z"/>
</clipPath>
<clipPath id="bg">
<path d="m112.06 191.31 75.3-75.3 75.31 75.3-75.3 75.3z"/>
</clipPath>
<clipPath id="bf">
<path d="m181 240h21v4h-21z"/>
</clipPath>
<clipPath id="be">
<path d="m112.06 191.31 75.3-75.3 75.31 75.3-75.3 75.3z"/>
</clipPath>
<clipPath id="bd">
<path d="m112.06 191.31 75.3-75.3 75.31 75.3-75.3 75.3z"/>
</clipPath>
<clipPath id="bc">
<path d="m180 139h22v3h-22z"/>
</clipPath>
<clipPath id="bb">
<path d="m112.06 191.31 75.3-75.3 75.31 75.3-75.3 75.3z"/>
</clipPath>
<clipPath id="ba">
<path d="m112.06 191.31 75.3-75.3 75.31 75.3-75.3 75.3z"/>
</clipPath>
<linearGradient id="ax" x1="562.4" x2="-24.97" y1="512.65" y2="30.17" gradientTransform="matrix(-.62863 0 0 -.62863 356.47 358.14)" gradientUnits="userSpaceOnUse">
<stop stop-color="#059F83" offset="0"/>
<stop stop-color="#059F82" offset="0"/>
<stop stop-color="#059E81" offset=".01"/>
<stop stop-color="#059D81" offset=".01"/>
<stop stop-color="#059D80" offset=".02"/>
<stop stop-color="#059C80" offset=".02"/>
<stop stop-color="#059B7F" offset=".02"/>
<stop stop-color="#059A7E" offset=".03"/>
<stop stop-color="#05997D" offset=".04"/>
<stop stop-color="#05987D" offset=".04"/>
<stop stop-color="#05987C" offset=".04"/>
<stop stop-color="#05977C" offset=".05"/>
<stop stop-color="#05967B" offset=".05"/>
<stop stop-color="#05967A" offset=".05"/>
<stop stop-color="#05957A" offset=".06"/>
<stop stop-color="#059479" offset=".06"/>
<stop stop-color="#059379" offset=".07"/>
<stop stop-color="#059378" offset=".07"/>
<stop stop-color="#049278" offset=".07"/>
<stop stop-color="#049177" offset=".08"/>
<stop stop-color="#049176" offset=".08"/>
<stop stop-color="#049076" offset=".09"/>
<stop stop-color="#048F75" offset=".09"/>
<stop stop-color="#048E75" offset=".09"/>
<stop stop-color="#048E74" offset=".1"/>
<stop stop-color="#048D74" offset=".1"/>
<stop stop-color="#048C73" offset=".11"/>
<stop stop-color="#048C72" offset=".11"/>
<stop stop-color="#048B72" offset=".11"/>
<stop stop-color="#048A71" offset=".12"/>
<stop stop-color="#048970" offset=".13"/>
<stop stop-color="#04886F" offset=".13"/>
<stop stop-color="#04876F" offset=".13"/>
<stop stop-color="#04876E" offset=".14"/>
<stop stop-color="#04866E" offset=".14"/>
<stop stop-color="#04856D" offset=".14"/>
<stop stop-color="#04856D" offset=".15"/>
<stop stop-color="#04846C" offset=".15"/>
<stop stop-color="#04836B" offset=".16"/>
<stop stop-color="#04826A" offset=".16"/>
<stop stop-color="#04816A" offset=".17"/>
<stop stop-color="#048069" offset=".17"/>
<stop stop-color="#048069" offset=".18"/>
<stop stop-color="#047F68" offset=".18"/>
<stop stop-color="#047E67" offset=".18"/>
<stop stop-color="#047E67" offset=".19"/>
<stop stop-color="#047D66" offset=".19"/>
<stop stop-color="#047C66" offset=".2"/>
<stop stop-color="#047B65" offset=".2"/>
<stop stop-color="#047A64" offset=".21"/>
<stop stop-color="#047963" offset=".21"/>
<stop stop-color="#047862" offset=".22"/>
<stop stop-color="#047762" offset=".22"/>
<stop stop-color="#047761" offset=".23"/>
<stop stop-color="#047660" offset=".23"/>
<stop stop-color="#047560" offset=".23"/>
<stop stop-color="#04745F" offset=".24"/>
<stop stop-color="#04735E" offset=".25"/>
<stop stop-color="#04725E" offset=".25"/>
<stop stop-color="#03725D" offset=".25"/>
<stop stop-color="#03715C" offset=".26"/>
<stop stop-color="#03705C" offset=".26"/>
<stop stop-color="#036F5B" offset=".27"/>
<stop stop-color="#036E5A" offset=".27"/>
<stop stop-color="#036D5A" offset=".28"/>
<stop stop-color="#036D59" offset=".28"/>
<stop stop-color="#036C58" offset=".29"/>
<stop stop-color="#036B58" offset=".29"/>
<stop stop-color="#036B57" offset=".29"/>
<stop stop-color="#036A57" offset=".3"/>
<stop stop-color="#036956" offset=".3"/>
<stop stop-color="#036856" offset=".3"/>
<stop stop-color="#036855" offset=".31"/>
<stop stop-color="#036754" offset=".31"/>
<stop stop-color="#036654" offset=".32"/>
<stop stop-color="#036653" offset=".32"/>
<stop stop-color="#036553" offset=".32"/>
<stop stop-color="#036452" offset=".33"/>
<stop stop-color="#036351" offset=".33"/>
<stop stop-color="#036351" offset=".34"/>
<stop stop-color="#036250" offset=".34"/>
<stop stop-color="#036150" offset=".34"/>
<stop stop-color="#03614F" offset=".35"/>
<stop stop-color="#03604F" offset=".35"/>
<stop stop-color="#035F4E" offset=".36"/>
<stop stop-color="#035F4D" offset=".36"/>
<stop stop-color="#035E4D" offset=".36"/>
<stop stop-color="#035D4C" offset=".37"/>
<stop stop-color="#035C4C" offset=".37"/>
<stop stop-color="#035C4B" offset=".38"/>
<stop stop-color="#035B4B" offset=".38"/>
<stop stop-color="#035A4A" offset=".38"/>
<stop stop-color="#035A49" offset=".39"/>
<stop stop-color="#035949" offset=".39"/>
<stop stop-color="#035848" offset=".39"/>
<stop stop-color="#035848" offset=".4"/>
<stop stop-color="#035747" offset=".4"/>
<stop stop-color="#035646" offset=".41"/>
<stop stop-color="#035546" offset=".41"/>
<stop stop-color="#035545" offset=".41"/>
<stop stop-color="#035445" offset=".42"/>
<stop stop-color="#035344" offset=".42"/>
<stop stop-color="#035344" offset=".43"/>
<stop stop-color="#035243" offset=".43"/>
<stop stop-color="#025142" offset=".43"/>
<stop stop-color="#025042" offset=".44"/>
<stop stop-color="#025041" offset=".44"/>
<stop stop-color="#024F41" offset=".45"/>
<stop stop-color="#024E40" offset=".45"/>
<stop stop-color="#024D3F" offset=".46"/>
<stop stop-color="#024C3E" offset=".46"/>
<stop stop-color="#024B3D" offset=".47"/>
<stop stop-color="#024A3D" offset=".47"/>
<stop stop-color="#02493C" offset=".48"/>
<stop stop-color="#02483B" offset=".48"/>
<stop stop-color="#02473A" offset=".49"/>
<stop stop-color="#024639" offset=".5"/>
<stop stop-color="#024539" offset=".5"/>
<stop stop-color="#024438" offset=".5"/>
<stop stop-color="#024437" offset=".51"/>
<stop stop-color="#024337" offset=".51"/>
<stop stop-color="#024236" offset=".52"/>
<stop stop-color="#024135" offset=".52"/>
<stop stop-color="#024035" offset=".53"/>
<stop stop-color="#024034" offset=".53"/>
<stop stop-color="#023F33" offset=".54"/>
<stop stop-color="#023E33" offset=".54"/>
<stop stop-color="#023D32" offset=".54"/>
<stop stop-color="#023D32" offset=".55"/>
<stop stop-color="#023C31" offset=".55"/>
<stop stop-color="#023B31" offset=".55"/>
<stop stop-color="#023B30" offset=".56"/>
<stop stop-color="#023A2F" offset=".56"/>
<stop stop-color="#02392F" offset=".57"/>
<stop stop-color="#02392E" offset=".57"/>
<stop stop-color="#02382E" offset=".57"/>
<stop stop-color="#02372D" offset=".58"/>
<stop stop-color="#02362D" offset=".58"/>
<stop stop-color="#02362C" offset=".59"/>
<stop stop-color="#02352B" offset=".59"/>
<stop stop-color="#02342B" offset=".59"/>
<stop stop-color="#02342A" offset=".6"/>
<stop stop-color="#02332A" offset=".6"/>
<stop stop-color="#023229" offset=".61"/>
<stop stop-color="#023128" offset=".61"/>
<stop stop-color="#013128" offset=".61"/>
<stop stop-color="#013027" offset=".62"/>
<stop stop-color="#012F27" offset=".62"/>
<stop stop-color="#012F26" offset=".63"/>
<stop stop-color="#012E26" offset=".63"/>
<stop stop-color="#012D25" offset=".63"/>
<stop stop-color="#012D24" offset=".64"/>
<stop stop-color="#012C24" offset=".64"/>
<stop stop-color="#012B23" offset=".64"/>
<stop stop-color="#012A23" offset=".65"/>
<stop stop-color="#012A22" offset=".65"/>
<stop stop-color="#012922" offset=".66"/>
<stop stop-color="#012821" offset=".66"/>
<stop stop-color="#012820" offset=".66"/>
<stop stop-color="#012720" offset=".67"/>
<stop stop-color="#01261F" offset=".67"/>
<stop stop-color="#01251F" offset=".68"/>
<stop stop-color="#01251E" offset=".68"/>
<stop stop-color="#01241E" offset=".68"/>
<stop stop-color="#01231D" offset=".69"/>
<stop stop-color="#01231C" offset=".69"/>
<stop stop-color="#01221C" offset=".7"/>
<stop stop-color="#01211B" offset=".7"/>
<stop stop-color="#01201A" offset=".71"/>
<stop stop-color="#011F19" offset=".71"/>
<stop stop-color="#011E19" offset=".71"/>
<stop stop-color="#011E18" offset=".72"/>
<stop stop-color="#011D18" offset=".72"/>
<stop stop-color="#011C17" offset=".73"/>
<stop stop-color="#011B16" offset=".73"/>
<stop stop-color="#011A15" offset=".74"/>
<stop stop-color="#011915" offset=".74"/>
<stop stop-color="#011914" offset=".75"/>
<stop stop-color="#011814" offset=".75"/>
<stop stop-color="#011713" offset=".75"/>
<stop stop-color="#011713" offset=".76"/>
<stop stop-color="#011612" offset=".76"/>
<stop stop-color="#011511" offset=".77"/>
<stop stop-color="#011410" offset=".77"/>
<stop stop-color="#011310" offset=".78"/>
<stop stop-color="#01120F" offset=".78"/>
<stop stop-color="#01120F" offset=".79"/>
<stop stop-color="#01110E" offset=".79"/>
<stop stop-color="#00100D" offset=".79"/>
<stop stop-color="#00100D" offset=".8"/>
<stop stop-color="#000F0C" offset=".8"/>
<stop stop-color="#000E0C" offset=".8"/>
<stop stop-color="#000E0B" offset=".81"/>
<stop stop-color="#000D0A" offset=".81"/>
<stop stop-color="#000C0A" offset=".82"/>
<stop stop-color="#000B09" offset=".82"/>
<stop stop-color="#000A08" offset=".83"/>
<stop stop-color="#000908" offset=".83"/>
<stop stop-color="#000907" offset=".84"/>
<stop stop-color="#000806" offset=".84"/>
<stop stop-color="#000706" offset=".84"/>
<stop stop-color="#000605" offset=".85"/>
<stop stop-color="#000504" offset=".86"/>
<stop stop-color="#000404" offset=".86"/>
<stop stop-color="#000403" offset=".86"/>
<stop stop-color="#000302" offset=".87"/>
<stop stop-color="#000202" offset=".87"/>
<stop stop-color="#000201" offset=".88"/>
<stop stop-color="#000101" offset=".88"/>
<stop offset=".88"/>
<stop offset=".89"/>
<stop offset=".91"/>
<stop offset=".94"/>
<stop offset="1"/>
</linearGradient>
</defs>
<path d="m-37.5-37.5h450v450h-450z" fill="#fff"/>
<path d="m-37.5-37.5h450v450h-450z" fill="#fff"/>
<path d="m310.17 137.01v110.33h-11.2v-88.27l-43.34 74.24h-5.51l-43.34-73.75v87.78h-11.2v-110.34h9.62l47.92 81.8 47.44-81.8z" fill="#03735e"/>
<g clip-path="url(#az)">
<g clip-path="url(#ay)">
<path d="M356.59 358.14V16.9H18.52v341.25Zm0 0" fill="url(#ax)"/>
</g>
</g>
<g clip-path="url(#aw)">
<path d="M187.5 123.84h-.02c-8.62 0-14.54 1.23-16.49 2.33 1.96 1.1 7.87 2.31 16.47 2.32h.06c8.6 0 14.53-1.23 16.48-2.32-1.95-1.1-7.88-2.33-16.49-2.33h-.01" fill="#03735e"/>
</g>
<g clip-path="url(#av)">
<path d="M208.98 112.87c-.43.36-.36.66-.48.99-.07.18-.14.41-.46.7 0 0-4.18 4.32-6.97 3.4-4.14-1.38-1.87-6.7-1.87-6.7l.43-.94c.21-.47.85-.66 1.1-.82.47-.28.63-.18.9-.79.45-.98.03-2.72-.1-3.08-.4.2-2.05 1.12-2.5 2.1-.27.6.08.96.2 1.42.07.25.18.58-.03 1.04l-.43.94s-2.54 5.12-6.34 5.15c-4.65.04-4.66-7.52-4.66-7.52 0-.55.28-.87.49-1.1.37-.45.94-.71.94-1.44 0-1.15-1.3-2.56-1.68-2.95 0-.02-.01-.02-.02-.03h-.01l-.03.02v.01c-.37.39-1.67 1.8-1.67 2.95 0 .73.57.99.94 1.43.2.24.5.56.5 1.11 0 0-.02 7.56-4.67 7.52-3.8-.03-6.35-5.15-6.35-5.15l-.42-.94c-.21-.46-.1-.79-.03-1.04.13-.46.47-.81.2-1.42-.46-.98-2.1-1.9-2.5-2.1-.13.36-.55 2.1-.1 3.08.27.6.43.5.9.8.25.15.88.34 1.1.81l.43.93s2.26 5.33-1.87 6.7c-2.8.93-6.97-3.4-6.97-3.4-.32-.28-.4-.51-.46-.7-.12-.32-.06-.62-.49-.98-.74-.62-2.08-1-2.36-1.06a6.1 6.1 0 0 0 1.33 2.14c.42.37.82.25 1.17.46 3.97 2.44 4.28 10.94 4.28 10.94h.04c.55-1.3 7.95-2.62 17-2.62h.06c9.06 0 16.46 1.32 17.01 2.62h.04s.31-8.5 4.27-10.94c.36-.21.75-.09 1.18-.46a6.1 6.1 0 0 0 1.33-2.14c-.28.06-1.62.44-2.37 1.06" fill="#03735e"/>
</g>
<path d="M180.73 137.01v110.33h-11.19v-88.27l-43.34 74.24h-5.52l-43.34-73.75v87.78H66.15V137h9.61l47.92 81.8 47.44-81.8Zm0 0" fill="#03735e"/>
<g clip-path="url(#au)">
<path d="m166.6 135.57h41.8v111.52h-41.8z" fill="#05a688"/>
</g>
<g clip-path="url(#at)">
<g clip-path="url(#as)">
<g clip-path="url(#ar)">
<path d="M175.14 240.47a1.3 1.3 0 1 0 0 2.6h2.81c.36 0 .69-.14.92-.38a1.3 1.3 0 0 0-.92-2.21Zm0 0" fill="#03735e"/>
</g>
</g>
</g>
<g clip-path="url(#aq)">
<g clip-path="url(#ap)">
<g clip-path="url(#ao)">
<path d="M177.9 141.59a1.3 1.3 0 0 0-.92-2.22h-1.87a1.3 1.3 0 1 0 0 2.6h1.87c.36 0 .68-.15.92-.38Zm0 0" fill="#03735e"/>
</g>
</g>
</g>
<g clip-path="url(#an)">
<g clip-path="url(#am)">
<g clip-path="url(#al)">
<path d="M179.2 151.67c0 .72.58 1.3 1.3 1.3H194.62a1.3 1.3 0 0 0 1.3-1.3c0-.72-.58-1.3-1.3-1.3H180.5c-.72 0-1.3.58-1.3 1.3Zm0 0" fill="#03735e"/>
</g>
</g>
</g>
<g clip-path="url(#ak)">
<g clip-path="url(#aj)">
<g clip-path="url(#ai)">
<path d="m205.62 138.52c0 11.83-8.62 17.98-18.06 24.3-9.4-6.3-18.05-12.45-18.05-24.3a1.77 1.77 0 1 0-3.55 0c0 13.14 9.03 20.1 18.42 26.43-9.4 6.33-18.42 13.28-18.42 26.43 0 13.13 9.03 20.09 18.42 26.42-9.4 6.34-18.42 13.3-18.42 26.43a1.77 1.77 0 0 0 3.55 0c0-11.85 8.64-18 18.05-24.3 9.41 6.3 18.06 12.45 18.06 24.3a1.77 1.77 0 0 0 3.54 0c0-13.12-9-20.08-18.42-26.43 3.75-2.53 7.45-5.16 10.53-8.24 4.64-4.63 7.89-10.3 7.89-18.19 0-13.14-9.03-20.09-18.42-26.42 3.75-2.53 7.45-5.16 10.53-8.24 4.63-4.64 7.89-10.3 7.89-18.19a1.77 1.77 0 1 0-3.54 0zm0 52.85c0 11.84-8.62 17.99-18.06 24.3-9.4-6.3-18.05-12.44-18.05-24.3 0-11.83 8.62-17.98 18.05-24.3 9.41 6.3 18.06 12.45 18.06 24.3z" fill="#03735e"/>
</g>
</g>
</g>
<g clip-path="url(#ah)">
<g clip-path="url(#ag)">
<g clip-path="url(#af)">
<path d="m193.24 176.7h-11.36a1.3 1.3 0 0 0 0 2.6h11.36a1.3 1.3 0 0 0 1.3-1.3c0-0.72-0.58-1.3-1.3-1.3z" fill="#03735e"/>
</g>
</g>
</g>
<g clip-path="url(#ae)">
<g clip-path="url(#ad)">
<g clip-path="url(#ac)">
<path d="M196.86 189.77c-.72 0-1.3.58-1.3 1.3 0 .72.58 1.3 1.3 1.3H200c.36 0 .68-.15.92-.39a1.3 1.3 0 0 0-.92-2.22Zm0 0" fill="#03735e"/>
</g>
</g>
</g>
<g clip-path="url(#ab)">
<g clip-path="url(#aa)">
<g clip-path="url(#bm)">
<path d="M187.56 189.77h-12.44a1.3 1.3 0 0 0 0 2.6h16.25c.36 0 .69-.15.92-.39a1.3 1.3 0 0 0-.92-2.21Zm0 0" fill="#03735e"/>
</g>
</g>
</g>
<g clip-path="url(#bl)">
<g clip-path="url(#bk)">
<g clip-path="url(#bj)">
<path d="m187.56 202.82h-6.85a1.3 1.3 0 0 0 0 2.6h13.7a1.28 1.28 0 0 0 1.3-1.3c0-0.72-0.59-1.3-1.3-1.3z" fill="#03735e"/>
</g>
</g>
</g>
<g clip-path="url(#bi)">
<g clip-path="url(#bh)">
<g clip-path="url(#bg)">
<path d="m194 231.54a1.3 1.3 0 1 0 0-2.6h-12.88a1.3 1.3 0 0 0 0 2.6z" fill="#03735e"/>
</g>
</g>
</g>
<g clip-path="url(#bf)">
<g clip-path="url(#be)">
<g clip-path="url(#bd)">
<path d="m187.57 240.47h-4.4a1.3 1.3 0 1 0 0 2.6h16.83a1.3 1.3 0 0 0 1.3-1.3c0-0.72-0.58-1.3-1.3-1.3z" fill="#03735e"/>
</g>
</g>
</g>
<g clip-path="url(#bc)">
<g clip-path="url(#bb)">
<g clip-path="url(#ba)">
<path d="m200.01 141.97a1.3 1.3 0 0 0 1.3-1.3c0-0.72-0.58-1.3-1.3-1.3h-18.68a1.3 1.3 0 1 0 0 2.6z" fill="#03735e"/>
</g>
</g>
</g>
</svg>
