<svg xmlns="http://www.w3.org/2000/svg" xmlns:xlink="http://www.w3.org/1999/xlink" width="500" zoomAndPan="magnify" viewBox="0 0 375 374.999991" height="500" preserveAspectRatio="xMidYMid meet" version="1.0"><defs><g/><clipPath id="f7b286f86f"><path d="M 170 123 L 204 123 L 204 128.738281 L 170 128.738281 Z M 170 123 " clip-rule="nonzero"/></clipPath><clipPath id="051923bda5"><path d="M 163.625 103.238281 L 211.625 103.238281 L 211.625 126 L 163.625 126 Z M 163.625 103.238281 " clip-rule="nonzero"/></clipPath><clipPath id="d517b32b7b"><path d="M 166.597656 135.570312 L 208.402344 135.570312 L 208.402344 247.054688 L 166.597656 247.054688 Z M 166.597656 135.570312 " clip-rule="nonzero"/></clipPath><clipPath id="0cdffa3d6f"><path d="M 173 240 L 180 240 L 180 244 L 173 244 Z M 173 240 " clip-rule="nonzero"/></clipPath><clipPath id="84af3a3d01"><path d="M 112.058594 191.3125 L 187.367188 116.003906 L 262.671875 191.3125 L 187.367188 266.617188 Z M 112.058594 191.3125 " clip-rule="nonzero"/></clipPath><clipPath id="98c572efb7"><path d="M 112.058594 191.3125 L 187.367188 116.003906 L 262.671875 191.3125 L 187.367188 266.617188 Z M 112.058594 191.3125 " clip-rule="nonzero"/></clipPath><clipPath id="46ba6e99ff"><path d="M 173 139 L 179 139 L 179 142 L 173 142 Z M 173 139 " clip-rule="nonzero"/></clipPath><clipPath id="3160f09cbb"><path d="M 112.058594 191.3125 L 187.367188 116.003906 L 262.671875 191.3125 L 187.367188 266.617188 Z M 112.058594 191.3125 " clip-rule="nonzero"/></clipPath><clipPath id="aeef1477c4"><path d="M 112.058594 191.3125 L 187.367188 116.003906 L 262.671875 191.3125 L 187.367188 266.617188 Z M 112.058594 191.3125 " clip-rule="nonzero"/></clipPath><clipPath id="a12dd88f7d"><path d="M 179 150 L 196 150 L 196 153 L 179 153 Z M 179 150 " clip-rule="nonzero"/></clipPath><clipPath id="ca60002a94"><path d="M 112.058594 191.3125 L 187.367188 116.003906 L 262.671875 191.3125 L 187.367188 266.617188 Z M 112.058594 191.3125 " clip-rule="nonzero"/></clipPath><clipPath id="7262c453ec"><path d="M 112.058594 191.3125 L 187.367188 116.003906 L 262.671875 191.3125 L 187.367188 266.617188 Z M 112.058594 191.3125 " clip-rule="nonzero"/></clipPath><clipPath id="766c81ee43"><path d="M 165 136 L 210 136 L 210 246 L 165 246 Z M 165 136 " clip-rule="nonzero"/></clipPath><clipPath id="08d97e6a76"><path d="M 112.058594 191.3125 L 187.367188 116.003906 L 262.671875 191.3125 L 187.367188 266.617188 Z M 112.058594 191.3125 " clip-rule="nonzero"/></clipPath><clipPath id="a2de980339"><path d="M 112.058594 191.3125 L 187.367188 116.003906 L 262.671875 191.3125 L 187.367188 266.617188 Z M 112.058594 191.3125 " clip-rule="nonzero"/></clipPath><clipPath id="c0c25382b3"><path d="M 180 176 L 195 176 L 195 180 L 180 180 Z M 180 176 " clip-rule="nonzero"/></clipPath><clipPath id="a376b577ec"><path d="M 112.058594 191.3125 L 187.367188 116.003906 L 262.671875 191.3125 L 187.367188 266.617188 Z M 112.058594 191.3125 " clip-rule="nonzero"/></clipPath><clipPath id="ec5cca8200"><path d="M 112.058594 191.3125 L 187.367188 116.003906 L 262.671875 191.3125 L 187.367188 266.617188 Z M 112.058594 191.3125 " clip-rule="nonzero"/></clipPath><clipPath id="923b9a4ff4"><path d="M 195 189 L 202 189 L 202 193 L 195 193 Z M 195 189 " clip-rule="nonzero"/></clipPath><clipPath id="e60db4aebc"><path d="M 112.058594 191.3125 L 187.367188 116.003906 L 262.671875 191.3125 L 187.367188 266.617188 Z M 112.058594 191.3125 " clip-rule="nonzero"/></clipPath><clipPath id="a64aa3e1e7"><path d="M 112.058594 191.3125 L 187.367188 116.003906 L 262.671875 191.3125 L 187.367188 266.617188 Z M 112.058594 191.3125 " clip-rule="nonzero"/></clipPath><clipPath id="cec50c2a49"><path d="M 173 189 L 193 189 L 193 193 L 173 193 Z M 173 189 " clip-rule="nonzero"/></clipPath><clipPath id="f5855fbbbb"><path d="M 112.058594 191.3125 L 187.367188 116.003906 L 262.671875 191.3125 L 187.367188 266.617188 Z M 112.058594 191.3125 " clip-rule="nonzero"/></clipPath><clipPath id="ab20f024a9"><path d="M 112.058594 191.3125 L 187.367188 116.003906 L 262.671875 191.3125 L 187.367188 266.617188 Z M 112.058594 191.3125 " clip-rule="nonzero"/></clipPath><clipPath id="b194aecfb0"><path d="M 179 202 L 196 202 L 196 206 L 179 206 Z M 179 202 " clip-rule="nonzero"/></clipPath><clipPath id="6def063f5e"><path d="M 112.058594 191.3125 L 187.367188 116.003906 L 262.671875 191.3125 L 187.367188 266.617188 Z M 112.058594 191.3125 " clip-rule="nonzero"/></clipPath><clipPath id="b0ab4253b6"><path d="M 112.058594 191.3125 L 187.367188 116.003906 L 262.671875 191.3125 L 187.367188 266.617188 Z M 112.058594 191.3125 " clip-rule="nonzero"/></clipPath><clipPath id="fe0b0cf602"><path d="M 179 228 L 196 228 L 196 232 L 179 232 Z M 179 228 " clip-rule="nonzero"/></clipPath><clipPath id="a1f3ad7ecc"><path d="M 112.058594 191.3125 L 187.367188 116.003906 L 262.671875 191.3125 L 187.367188 266.617188 Z M 112.058594 191.3125 " clip-rule="nonzero"/></clipPath><clipPath id="96c736d0b7"><path d="M 112.058594 191.3125 L 187.367188 116.003906 L 262.671875 191.3125 L 187.367188 266.617188 Z M 112.058594 191.3125 " clip-rule="nonzero"/></clipPath><clipPath id="d037b26ac7"><path d="M 181 240 L 202 240 L 202 244 L 181 244 Z M 181 240 " clip-rule="nonzero"/></clipPath><clipPath id="b2723e0ce7"><path d="M 112.058594 191.3125 L 187.367188 116.003906 L 262.671875 191.3125 L 187.367188 266.617188 Z M 112.058594 191.3125 " clip-rule="nonzero"/></clipPath><clipPath id="9ab821c67d"><path d="M 112.058594 191.3125 L 187.367188 116.003906 L 262.671875 191.3125 L 187.367188 266.617188 Z M 112.058594 191.3125 " clip-rule="nonzero"/></clipPath><clipPath id="4dbf7a369b"><path d="M 180 139 L 202 139 L 202 142 L 180 142 Z M 180 139 " clip-rule="nonzero"/></clipPath><clipPath id="2061b3b371"><path d="M 112.058594 191.3125 L 187.367188 116.003906 L 262.671875 191.3125 L 187.367188 266.617188 Z M 112.058594 191.3125 " clip-rule="nonzero"/></clipPath><clipPath id="70571d4ab3"><path d="M 112.058594 191.3125 L 187.367188 116.003906 L 262.671875 191.3125 L 187.367188 266.617188 Z M 112.058594 191.3125 " clip-rule="nonzero"/></clipPath></defs><rect x="-37.5" width="450" fill="none" y="-37.499999" height="449.999989" fill-opacity="1"/><rect x="-37.5" width="450" fill="#ffffff" y="-37.499999" height="449.999989" fill-opacity="1"/><g fill="#03735e" fill-opacity="1"><g transform="translate(177.618773, 247.338457)"><g><path d="M 132.546875 -110.328125 L 132.546875 0 L 121.359375 0 L 121.359375 -88.265625 L 78.015625 -14.03125 L 72.5 -14.03125 L 29.15625 -87.78125 L 29.15625 0 L 17.96875 0 L 17.96875 -110.328125 L 27.578125 -110.328125 L 75.5 -28.53125 L 122.9375 -110.328125 Z M 132.546875 -110.328125 "/></g></g></g><g clip-path="url(#f7b286f86f)"><path fill="#03735e" d="M 187.496094 123.84375 C 187.492188 123.84375 187.492188 123.84375 187.492188 123.84375 C 187.484375 123.84375 187.480469 123.84375 187.476562 123.84375 C 178.863281 123.84375 172.941406 125.070312 170.992188 126.167969 C 172.945312 127.261719 178.859375 128.484375 187.464844 128.492188 L 187.523438 128.492188 C 196.128906 128.484375 202.046875 127.261719 203.996094 126.167969 C 202.046875 125.070312 196.125 123.84375 187.511719 123.84375 C 187.507812 123.84375 187.503906 123.84375 187.496094 123.84375 " fill-opacity="1" fill-rule="nonzero"/></g><g clip-path="url(#051923bda5)"><path fill="#03735e" d="M 208.984375 112.871094 C 208.554688 113.234375 208.617188 113.527344 208.496094 113.855469 C 208.433594 114.039062 208.359375 114.273438 208.035156 114.558594 C 208.035156 114.558594 203.863281 118.878906 201.070312 117.953125 C 196.933594 116.582031 199.203125 111.253906 199.203125 111.253906 L 199.628906 110.320312 C 199.84375 109.851562 200.476562 109.660156 200.734375 109.503906 C 201.203125 109.21875 201.355469 109.316406 201.632812 108.710938 C 202.082031 107.726562 201.660156 105.992188 201.527344 105.628906 C 201.128906 105.835938 199.484375 106.746094 199.035156 107.730469 C 198.757812 108.335938 199.105469 108.6875 199.230469 109.148438 C 199.300781 109.402344 199.414062 109.726562 199.199219 110.191406 L 198.773438 111.128906 C 198.773438 111.128906 196.226562 116.246094 192.425781 116.28125 C 187.78125 116.324219 187.765625 108.761719 187.765625 108.761719 C 187.765625 108.207031 188.054688 107.894531 188.257812 107.652344 C 188.632812 107.207031 189.195312 106.945312 189.195312 106.21875 C 189.195312 105.074219 187.902344 103.660156 187.523438 103.269531 L 187.523438 103.261719 C 187.515625 103.253906 187.507812 103.246094 187.5 103.238281 C 187.5 103.238281 187.5 103.242188 187.496094 103.242188 C 187.496094 103.242188 187.496094 103.238281 187.496094 103.238281 C 187.492188 103.238281 187.492188 103.242188 187.492188 103.242188 C 187.488281 103.242188 187.488281 103.238281 187.488281 103.238281 C 187.480469 103.246094 187.472656 103.253906 187.464844 103.261719 L 187.464844 103.269531 C 187.085938 103.660156 185.792969 105.074219 185.792969 106.21875 C 185.792969 106.945312 186.355469 107.207031 186.730469 107.652344 C 186.9375 107.894531 187.222656 108.207031 187.222656 108.761719 C 187.222656 108.761719 187.207031 116.324219 182.5625 116.28125 C 178.761719 116.246094 176.214844 111.128906 176.214844 111.128906 L 175.789062 110.191406 C 175.578125 109.726562 175.6875 109.402344 175.757812 109.148438 C 175.886719 108.6875 176.230469 108.335938 175.953125 107.730469 C 175.503906 106.746094 173.859375 105.835938 173.464844 105.628906 C 173.328125 105.992188 172.90625 107.726562 173.355469 108.710938 C 173.632812 109.316406 173.789062 109.21875 174.253906 109.503906 C 174.511719 109.660156 175.144531 109.851562 175.359375 110.320312 L 175.785156 111.253906 C 175.785156 111.253906 178.054688 116.582031 173.917969 117.953125 C 171.125 118.878906 166.953125 114.558594 166.953125 114.558594 C 166.632812 114.273438 166.558594 114.039062 166.492188 113.855469 C 166.371094 113.527344 166.433594 113.234375 166.003906 112.871094 C 165.257812 112.246094 163.917969 111.871094 163.640625 111.808594 C 163.714844 112.070312 164.289062 113.351562 164.972656 113.949219 C 165.394531 114.320312 165.792969 114.195312 166.144531 114.414062 C 170.105469 116.851562 170.421875 125.347656 170.421875 125.347656 L 170.457031 125.347656 C 171.007812 124.050781 178.410156 122.734375 187.46875 122.734375 C 187.472656 122.734375 187.515625 122.734375 187.519531 122.734375 C 196.578125 122.734375 203.984375 124.050781 204.53125 125.347656 L 204.566406 125.347656 C 204.566406 125.347656 204.882812 116.851562 208.84375 114.414062 C 209.195312 114.195312 209.59375 114.320312 210.015625 113.949219 C 210.699219 113.351562 211.273438 112.070312 211.347656 111.808594 C 211.070312 111.871094 209.730469 112.246094 208.984375 112.871094 " fill-opacity="1" fill-rule="nonzero"/></g><g fill="#03735e" fill-opacity="1"><g transform="translate(48.181528, 247.338457)"><g><path d="M 132.546875 -110.328125 L 132.546875 0 L 121.359375 0 L 121.359375 -88.265625 L 78.015625 -14.03125 L 72.5 -14.03125 L 29.15625 -87.78125 L 29.15625 0 L 17.96875 0 L 17.96875 -110.328125 L 27.578125 -110.328125 L 75.5 -28.53125 L 122.9375 -110.328125 Z M 132.546875 -110.328125 "/></g></g></g><g clip-path="url(#d517b32b7b)"><path fill="#05a688" d="M 166.597656 135.570312 L 208.402344 135.570312 L 208.402344 247.09375 L 166.597656 247.09375 Z M 166.597656 135.570312 " fill-opacity="1" fill-rule="nonzero"/></g><g clip-path="url(#0cdffa3d6f)"><g clip-path="url(#84af3a3d01)"><g clip-path="url(#98c572efb7)"><path fill="#03735e" d="M 175.136719 240.472656 C 174.417969 240.46875 173.835938 241.054688 173.835938 241.769531 C 173.835938 242.488281 174.417969 243.070312 175.136719 243.070312 L 177.953125 243.070312 C 178.3125 243.070312 178.636719 242.925781 178.871094 242.6875 C 179.109375 242.453125 179.253906 242.128906 179.253906 241.769531 C 179.253906 241.054688 178.671875 240.472656 177.953125 240.472656 Z M 175.136719 240.472656 " fill-opacity="1" fill-rule="nonzero"/></g></g></g><g clip-path="url(#46ba6e99ff)"><g clip-path="url(#3160f09cbb)"><g clip-path="url(#aeef1477c4)"><path fill="#03735e" d="M 177.898438 141.589844 C 178.132812 141.351562 178.277344 141.03125 178.277344 140.671875 C 178.277344 139.953125 177.699219 139.371094 176.980469 139.371094 L 175.109375 139.371094 C 174.390625 139.371094 173.808594 139.953125 173.808594 140.671875 C 173.808594 141.390625 174.394531 141.96875 175.109375 141.96875 L 176.976562 141.96875 C 177.335938 141.96875 177.664062 141.824219 177.898438 141.589844 Z M 177.898438 141.589844 " fill-opacity="1" fill-rule="nonzero"/></g></g></g><g clip-path="url(#a12dd88f7d)"><g clip-path="url(#ca60002a94)"><g clip-path="url(#7262c453ec)"><path fill="#03735e" d="M 179.195312 151.667969 C 179.195312 152.386719 179.777344 152.96875 180.492188 152.96875 L 187.5625 152.972656 C 187.5625 152.96875 187.5625 152.972656 187.5625 152.972656 L 194.628906 152.96875 C 194.988281 152.96875 195.3125 152.824219 195.546875 152.589844 C 195.78125 152.355469 195.929688 152.027344 195.929688 151.667969 C 195.929688 150.953125 195.347656 150.371094 194.628906 150.371094 L 180.496094 150.371094 C 179.777344 150.371094 179.195312 150.953125 179.195312 151.667969 Z M 179.195312 151.667969 " fill-opacity="1" fill-rule="nonzero"/></g></g></g><g clip-path="url(#766c81ee43)"><g clip-path="url(#08d97e6a76)"><g clip-path="url(#a2de980339)"><path fill="#03735e" d="M 205.617188 138.519531 C 205.617188 150.351562 197 156.5 187.5625 162.816406 C 178.152344 156.519531 169.507812 150.371094 169.507812 138.519531 C 169.507812 137.539062 168.714844 136.746094 167.734375 136.746094 C 166.757812 136.746094 165.964844 137.539062 165.964844 138.519531 C 165.960938 151.65625 174.988281 158.613281 184.378906 164.945312 C 174.988281 171.277344 165.960938 178.234375 165.964844 191.375 C 165.960938 204.511719 174.988281 211.46875 184.378906 217.800781 C 174.988281 224.136719 165.960938 231.09375 165.964844 244.230469 C 165.964844 245.207031 166.757812 246 167.734375 246 C 168.226562 246 168.667969 245.804688 168.988281 245.484375 C 169.308594 245.160156 169.507812 244.71875 169.507812 244.230469 C 169.507812 232.378906 178.148438 226.226562 187.5625 219.933594 C 196.972656 226.226562 205.617188 232.378906 205.617188 244.230469 C 205.617188 245.207031 206.410156 246 207.386719 246 C 207.878906 246 208.320312 245.804688 208.640625 245.484375 C 208.960938 245.164062 209.160156 244.71875 209.160156 244.230469 C 209.160156 231.109375 200.160156 224.152344 190.742188 217.800781 C 194.492188 215.273438 198.1875 212.644531 201.269531 209.5625 C 205.90625 204.925781 209.160156 199.265625 209.160156 191.375 C 209.160156 178.234375 200.132812 171.28125 190.742188 164.945312 C 194.492188 162.417969 198.1875 159.789062 201.269531 156.707031 C 205.902344 152.070312 209.160156 146.410156 209.160156 138.519531 C 209.160156 137.539062 208.367188 136.746094 207.386719 136.746094 C 206.410156 136.746094 205.617188 137.539062 205.617188 138.519531 Z M 205.617188 191.375 C 205.617188 203.207031 196.996094 209.355469 187.5625 215.667969 C 178.152344 209.375 169.507812 203.226562 169.507812 191.375 C 169.507812 179.539062 178.128906 173.390625 187.5625 167.078125 C 196.972656 173.371094 205.617188 179.523438 205.617188 191.375 Z M 205.617188 191.375 " fill-opacity="1" fill-rule="nonzero"/></g></g></g><g clip-path="url(#c0c25382b3)"><g clip-path="url(#a376b577ec)"><g clip-path="url(#ec5cca8200)"><path fill="#03735e" d="M 193.238281 176.699219 L 181.882812 176.699219 C 181.164062 176.699219 180.585938 177.28125 180.582031 178 C 180.582031 178.714844 181.164062 179.296875 181.882812 179.300781 L 193.242188 179.300781 C 193.597656 179.296875 193.925781 179.152344 194.160156 178.917969 C 194.394531 178.683594 194.539062 178.359375 194.539062 178 C 194.539062 177.28125 193.957031 176.699219 193.238281 176.699219 Z M 193.238281 176.699219 " fill-opacity="1" fill-rule="nonzero"/></g></g></g><g clip-path="url(#923b9a4ff4)"><g clip-path="url(#e60db4aebc)"><g clip-path="url(#a64aa3e1e7)"><path fill="#03735e" d="M 196.855469 189.769531 C 196.140625 189.765625 195.554688 190.351562 195.558594 191.066406 C 195.554688 191.785156 196.140625 192.367188 196.855469 192.367188 L 200.003906 192.367188 C 200.359375 192.367188 200.683594 192.21875 200.917969 191.984375 C 201.15625 191.75 201.300781 191.425781 201.300781 191.066406 C 201.300781 190.347656 200.71875 189.765625 200 189.765625 Z M 196.855469 189.769531 " fill-opacity="1" fill-rule="nonzero"/></g></g></g><g clip-path="url(#cec50c2a49)"><g clip-path="url(#f5855fbbbb)"><g clip-path="url(#ab20f024a9)"><path fill="#03735e" d="M 187.5625 189.765625 L 175.125 189.765625 C 174.40625 189.765625 173.824219 190.351562 173.824219 191.066406 C 173.824219 191.785156 174.40625 192.367188 175.121094 192.367188 L 191.371094 192.367188 C 191.730469 192.367188 192.058594 192.222656 192.292969 191.984375 C 192.527344 191.75 192.671875 191.425781 192.671875 191.066406 C 192.671875 190.351562 192.09375 189.769531 191.375 189.769531 Z M 187.5625 189.765625 " fill-opacity="1" fill-rule="nonzero"/></g></g></g><g clip-path="url(#b194aecfb0)"><g clip-path="url(#6def063f5e)"><g clip-path="url(#b0ab4253b6)"><path fill="#03735e" d="M 187.5625 202.820312 L 180.714844 202.820312 C 180 202.820312 179.414062 203.40625 179.417969 204.121094 C 179.414062 204.835938 180 205.421875 180.714844 205.417969 L 194.410156 205.417969 C 194.765625 205.421875 195.09375 205.273438 195.328125 205.039062 C 195.5625 204.804688 195.707031 204.480469 195.707031 204.121094 C 195.707031 203.402344 195.125 202.820312 194.410156 202.820312 Z M 187.5625 202.820312 " fill-opacity="1" fill-rule="nonzero"/></g></g></g><g clip-path="url(#fe0b0cf602)"><g clip-path="url(#a1f3ad7ecc)"><g clip-path="url(#96c736d0b7)"><path fill="#03735e" d="M 194.003906 231.539062 C 194.359375 231.539062 194.6875 231.394531 194.921875 231.160156 C 195.15625 230.925781 195.300781 230.597656 195.300781 230.242188 C 195.300781 229.523438 194.71875 228.941406 194.003906 228.941406 L 181.121094 228.941406 C 180.40625 228.941406 179.820312 229.523438 179.824219 230.242188 C 179.820312 230.957031 180.40625 231.539062 181.121094 231.539062 Z M 194.003906 231.539062 " fill-opacity="1" fill-rule="nonzero"/></g></g></g><g clip-path="url(#d037b26ac7)"><g clip-path="url(#b2723e0ce7)"><g clip-path="url(#9ab821c67d)"><path fill="#03735e" d="M 187.566406 240.472656 C 187.5625 240.472656 187.5625 240.472656 187.5625 240.472656 L 183.175781 240.472656 C 182.457031 240.472656 181.875 241.050781 181.875 241.769531 C 181.875 242.488281 182.457031 243.070312 183.175781 243.070312 L 187.5625 243.070312 C 187.5625 243.070312 187.566406 243.070312 187.566406 243.070312 L 199.988281 243.070312 C 200.347656 243.070312 200.671875 242.925781 200.90625 242.691406 C 201.140625 242.453125 201.289062 242.128906 201.289062 241.769531 C 201.289062 241.054688 200.707031 240.472656 199.988281 240.472656 Z M 187.566406 240.472656 " fill-opacity="1" fill-rule="nonzero"/></g></g></g><g clip-path="url(#4dbf7a369b)"><g clip-path="url(#2061b3b371)"><g clip-path="url(#70571d4ab3)"><path fill="#03735e" d="M 200.011719 141.96875 C 200.371094 141.96875 200.699219 141.824219 200.933594 141.589844 C 201.167969 141.351562 201.3125 141.027344 201.3125 140.671875 C 201.3125 139.953125 200.730469 139.371094 200.015625 139.371094 L 187.5625 139.367188 C 187.5625 139.371094 187.5625 139.367188 187.5625 139.367188 L 181.332031 139.371094 C 180.613281 139.367188 180.03125 139.953125 180.03125 140.667969 C 180.03125 141.386719 180.613281 141.96875 181.332031 141.96875 Z M 200.011719 141.96875 " fill-opacity="1" fill-rule="nonzero"/></g></g></g></svg>